<svg xmlns="http://www.w3.org/2000/svg" width="100" height="100" viewBox="0 0 100 100">
  <defs>
    <linearGradient id="lb-grad" x1="0%" y1="0%" x2="100%" y2="100%">
      <stop offset="0%" style="stop-color:#0b2d63;stop-opacity:1" />
      <stop offset="100%" style="stop-color:#0d3f8f;stop-opacity:1" />
    </linearGradient>
  </defs>
  <rect x="0" y="0" width="100" height="100" rx="5" fill="url(#lb-grad)" />
  <!-- Professional Elephant Head Side View -->
  <path d="M72,55c-1.1,0-2.1-0.4-2.8-1.2c-0.6-0.7-1.1-1.6-1.1-2.6v-0.4c0-0.8-0.3-1.6-0.9-2.2c-0.6-0.6-1.4-0.9-2.2-0.9h-3.4 c-0.6,0-1.1-0.2-1.6-0.5c-0.5-0.3-0.8-0.8-0.9-1.4c-0.3-2.1-1.1-4-2.3-5.7c-1.3-1.7-2.9-3.1-4.8-4.1C50.2,35,48.2,34.5,46,34.5 c-3.3,0-6.4,1-9,2.9c-2.6,1.9-4.5,4.6-5.4,7.6c-0.1,0.5-0.4,0.9-0.8,1.2c-0.4,0.3-1,0.4-1.5,0.4c-1.5,0-2.8,0.6-3.8,1.7 c-1,1.1-1.6,2.5-1.5,4.1c0.1,1.6,0.8,3,1.9,4c1.1,1,2.5,1.5,4,1.5h1.1v24h6v-24h4v24h6v-24h4v24h6v-24h1.9c1.6,0,3-0.6,4.1-1.7 c1.1-1.1,1.7-2.5,1.7-4.1c0-1.6-0.6-3-1.7-4.1C75,55.6,73.6,55,72,55z" fill="white" />
  <!-- Signal Lines -->
  <path d="M75,35 c5,5 5,15 0,20" fill="none" stroke="#18b866" stroke-width="4" stroke-linecap="round" />
  <path d="M68,40 c3,3 3,10 0,13" fill="none" stroke="#18b866" stroke-width="3" stroke-linecap="round" />
</svg>